<?xml version="1.0" encoding="UTF-8" standalone="no"?>
<!-- Created with Inkscape (http://www.inkscape.org/) -->

<svg
   width="75"
   height="75"
   viewBox="0 0 19.84375 19.84375"
   version="1.1"
   id="svg1"
   inkscape:version="1.3 (0e150ed6c4, 2023-07-21)"
   sodipodi:docname="iconoReiniciarVideo.svg"
   xml:space="preserve"
   xmlns:inkscape="http://www.inkscape.org/namespaces/inkscape"
   xmlns:sodipodi="http://sodipodi.sourceforge.net/DTD/sodipodi-0.dtd"
   xmlns="http://www.w3.org/2000/svg"
   xmlns:svg="http://www.w3.org/2000/svg"><sodipodi:namedview
     id="namedview1"
     pagecolor="#505050"
     bordercolor="#ffffff"
     borderopacity="1"
     inkscape:showpageshadow="0"
     inkscape:pageopacity="0"
     inkscape:pagecheckerboard="1"
     inkscape:deskcolor="#505050"
     inkscape:document-units="mm"
     inkscape:zoom="5.6088103"
     inkscape:cx="27.635094"
     inkscape:cy="54.289588"
     inkscape:window-width="1920"
     inkscape:window-height="1001"
     inkscape:window-x="-9"
     inkscape:window-y="-9"
     inkscape:window-maximized="1"
     inkscape:current-layer="layer1" /><defs
     id="defs1"><inkscape:path-effect
       effect="bspline"
       id="path-effect13"
       is_visible="true"
       lpeversion="1.3"
       weight="33.333333"
       steps="2"
       helper_size="0"
       apply_no_weight="true"
       apply_with_weight="true"
       only_selected="false"
       uniform="false" /></defs><g
     inkscape:label="Capa 1"
     inkscape:groupmode="layer"
     id="layer1"><rect
       style="display:inline;fill:#000000;fill-opacity:1;stroke-width:0.101981"
       id="rect3"
       width="19.354538"
       height="19.276382"
       x="0.23586404"
       y="0.23586404"
       rx="9.677269"
       ry="9.6381912" /><path
       style="fill:#ffffff;fill-opacity:1;stroke-width:0.292886"
       d="M 9.5982895,15.927913 V 14.10987 h 0.3358539 c 0.8100026,0 1.9494366,-0.586013 2.5700946,-1.321805 0.404414,-0.479433 0.813157,-1.351514 0.899672,-1.919506 C 13.64436,9.2899349 12.48437,7.454335 10.891313,6.8925562 10.663527,6.8122289 10.322398,6.7228737 10.133251,6.693988 9.4209677,6.5852139 8.4036219,6.9457989 7.6234451,7.583557 L 7.2152747,7.9172173 7.9155578,8.6514357 c 0.5929988,0.6217347 0.6965094,0.7680566 0.6756513,0.955096 L 8.566576,9.8274101 5.7198146,9.848011 2.8730539,9.8686119 V 6.8424293 3.8162483 H 3.074406 c 0.1503296,0 0.3778751,0.1774034 0.8979715,0.700093 L 4.6689973,5.2164345 5.2039342,4.7556527 C 5.8702419,4.1817114 6.8282423,3.6569909 7.7259215,3.3742975 8.3709426,3.1711701 8.5016805,3.1576961 9.8275572,3.1576961 c 1.3248188,0 1.4571288,0.01361 2.1016358,0.2161516 1.994324,0.6267396 3.516309,1.9754046 4.367884,3.8704813 0.389738,0.8673135 0.563498,1.6554129 0.612826,2.779522 0.101155,2.305108 -0.641766,4.266489 -2.175316,5.743031 -1.248881,1.202457 -2.592708,1.787098 -4.425729,1.925442 l -0.71057,0.05363 z m 4.1010395,-5.609395 c -0.0212,-0.05402 -0.03855,-0.0098 -0.03855,0.09822 0,0.108043 0.01735,0.152243 0.03855,0.09822 0.0212,-0.05402 0.0212,-0.142421 0,-0.196443 z M 3.1205552,6.2324355 c 0.016507,-1.8013815 0.00182,-2.1805732 -0.084461,-2.1805188 -0.071008,4.45e-5 -0.08969,0.056663 -0.058361,0.1768642 0.025346,0.097239 0.053472,1.343671 0.062505,2.7698484 0.00903,1.4261768 0.026305,2.3278509 0.03838,2.0037196 0.012076,-0.3241308 0.030948,-1.5705918 0.041937,-2.7699134 z"
       id="path13" /></g></svg>
